<svg width="132" height="124" viewBox="0 0 132 124" fill="none" xmlns="http://www.w3.org/2000/svg">
<path d="M41.7726 69.7484C41.2391 70.0245 40.8727 70.57 40.7539 71.2649C40.6352 71.9598 40.774 72.7472 41.1397 73.4538C41.5053 74.1605 42.068 74.7285 42.7038 75.0329C43.3397 75.3374 43.9966 75.3533 44.5302 75.0772L129.32 31.2002C129.584 31.0635 129.81 30.8592 129.985 30.599C130.159 30.3388 130.28 30.0278 130.338 29.6837C130.397 29.3396 130.393 28.9692 130.327 28.5937C130.261 28.2181 130.134 27.8447 129.953 27.4948C129.772 27.1449 129.54 26.8254 129.272 26.5544C129.004 26.2835 128.703 26.0664 128.389 25.9157C128.074 25.7649 127.75 25.6835 127.437 25.6759C127.124 25.6683 126.826 25.7347 126.562 25.8714L42.3569 69.446" fill="#3F3D56"/>
<path d="M23.9741 35.422C17.6632 44.5994 14.9281 55.8135 16.2847 66.9493C17.6413 78.0851 22.9959 88.3728 31.3385 95.8721C39.6812 103.371 50.4351 107.564 61.5721 107.659C72.7091 107.753 83.4594 103.744 91.7952 96.3868C100.131 89.0296 105.476 78.8329 106.823 67.7202C108.169 56.6074 105.424 45.3466 99.1042 36.0616C92.7847 26.7767 83.3281 20.1095 72.5179 17.3175C61.7077 14.5255 50.2911 15.8017 40.4215 20.9054C33.8327 24.3115 28.1862 29.2952 23.9741 35.422V35.422ZM71.8382 45.8805C75.3235 48.1842 77.968 51.5721 79.3632 55.5207C80.7584 59.4693 80.8265 63.7589 79.5571 67.7265C78.2876 71.694 75.7513 75.1188 72.34 77.4714C68.9287 79.8241 64.8323 80.9737 60.6839 80.7427C56.5355 80.5116 52.566 78.9127 49.3888 76.1931C46.2117 73.4735 44.0037 69.7845 43.1061 65.6962C42.2084 61.6079 42.6712 57.3479 44.4228 53.5746C46.1744 49.8012 49.1173 46.7245 52.7969 44.82C55.7617 43.2743 59.0901 42.5577 62.4378 42.7442C65.7855 42.9306 69.0309 44.0134 71.8382 45.8805L71.8382 45.8805Z" fill="#DB5461"/>
<path opacity="0.2" d="M41.5688 72.1073C43.6597 76.1472 46.8754 79.4898 50.8095 81.7125C54.7436 83.9352 59.2193 84.9382 63.6706 84.5946C68.1219 84.2511 72.349 82.5763 75.8174 79.7823C79.2857 76.9882 81.8394 73.2002 83.1558 68.8974C84.4721 64.5945 84.4918 59.97 83.2124 55.6087C81.9331 51.2473 79.4121 47.3449 75.9683 44.395C72.5245 41.4451 68.3125 39.5802 63.8649 39.036C59.4174 38.4918 54.934 39.2928 50.9817 41.3378C45.6865 44.0855 41.7217 48.8683 39.957 54.6368C38.1923 60.4052 38.772 66.6882 41.5688 72.1073V72.1073ZM71.6965 45.9428C75.1699 48.2621 77.8129 51.6619 79.2169 55.6168C80.621 59.5717 80.7079 63.8615 79.4644 67.8233C78.2209 71.7852 75.7161 75.1985 72.3371 77.5358C68.9581 79.8731 64.893 81.0043 60.77 80.7546C56.6469 80.5049 52.6955 78.8882 49.5263 76.1543C46.3572 73.4204 44.1466 69.7215 43.2364 65.6292C42.3261 61.5369 42.7667 57.279 44.4902 53.5136C46.2137 49.7481 49.1241 46.6847 52.7716 44.7967C55.7106 43.2644 59.0146 42.5627 62.3418 42.7642C65.6691 42.9657 68.8986 44.0631 71.6965 45.9428V45.9428Z" fill="black"/>
<path d="M23.0009 35.55L29.7495 32.0577C30.2421 31.8024 30.8008 31.7022 31.3537 31.7702C31.9065 31.8381 32.4283 32.0711 32.8517 32.439C33.2752 32.8069 33.5809 33.293 33.7295 33.8346C33.8781 34.3762 33.8628 34.9486 33.6856 35.4779L34.4546 35.08C35.2321 34.6776 36.1397 34.6046 36.9776 34.8769C37.8155 35.1493 38.5152 35.7447 38.9227 36.5322C39.3302 37.3197 39.4122 38.2348 39.1506 39.0761C38.889 39.9174 38.3052 40.6161 37.5277 41.0185L36.8868 41.3501C37.3916 41.5442 37.8313 41.8811 38.1525 42.3198C38.4737 42.7586 38.6627 43.2804 38.6967 43.8222C38.7306 44.3639 38.6079 44.9023 38.3435 45.3721C38.0792 45.8419 37.6845 46.223 37.2072 46.4692L30.0957 50.3003L28.4412 51.1565C28.1766 51.2939 27.978 51.5321 27.8892 51.8188C27.8003 52.1054 27.8283 52.4171 27.9671 52.6853C28.1059 52.9535 28.3441 53.1564 28.6295 53.2494C28.9148 53.3424 29.2239 53.3179 29.489 53.1812L31.1435 52.3251L37.2023 49.3407C37.8573 49.0018 38.6217 48.9403 39.3276 49.1697C40.0334 49.3991 40.6228 49.9007 40.9661 50.564C41.3093 51.2274 41.3784 51.9982 41.158 52.7069C40.9376 53.4156 40.4459 54.0042 39.7909 54.3431L33.9521 57.7526L30.8865 59.339C30.4521 59.5638 30.1259 59.9542 29.9797 60.4243C29.8335 60.8945 29.8793 61.4058 30.107 61.8458C30.3347 62.2858 30.7257 62.6185 31.1939 62.7707C31.6621 62.9229 32.1692 62.8821 32.6036 62.6572L35.6693 61.0708L41.7632 58.1544C42.2766 57.8882 42.8613 57.7909 43.4358 57.8761C44.0103 57.9612 44.546 58.2246 44.9682 58.6294C45.3903 59.0343 45.678 59.5604 45.791 60.1345C45.9039 60.7086 45.8367 61.3021 45.5985 61.8321C46.3024 61.9693 46.9296 62.3741 47.3495 62.9623C47.7694 63.5506 47.9497 64.2769 47.8529 64.9901L49.4933 64.1412C50.2708 63.7389 51.1783 63.6659 52.0162 63.9382C52.8542 64.2106 53.5539 64.806 53.9614 65.5935C54.3689 66.381 54.4508 67.296 54.1892 68.1374C53.9276 68.9787 53.3438 69.6774 52.5663 70.0798L47.5016 72.7006C48.0664 72.4081 48.7158 72.3206 49.3413 72.4528C49.9668 72.585 50.5306 72.9288 50.9386 73.427C51.3466 73.9251 51.5741 74.5474 51.5831 75.1899C51.5921 75.8325 51.3821 76.4564 50.9881 76.9575L55.0403 74.8606C55.8178 74.4582 56.7254 74.3852 57.5633 74.6575C58.4012 74.9299 59.1009 75.5253 59.5084 76.3128C59.9159 77.1003 59.9979 78.0154 59.7363 78.8567C59.4746 79.698 58.8909 80.3967 58.1134 80.7991L48.4626 85.7932L48.4712 85.8099L58.122 80.8158C58.8995 80.4134 59.807 80.3404 60.645 80.6127C61.4829 80.8851 62.1826 81.4805 62.5901 82.268C62.9976 83.0555 63.0796 83.9706 62.818 84.8119C62.5563 85.6532 61.9726 86.3519 61.1951 86.7543L57.1769 88.8336C57.8104 88.8112 58.4348 89.0072 58.9469 89.3893C59.459 89.7714 59.8283 90.3167 59.9937 90.9351C60.159 91.5536 60.1106 92.2081 59.8565 92.7907C59.6023 93.3733 59.1576 93.849 58.5957 94.1393L54.0096 96.5125L54.1415 96.7674L62.3812 92.5035C63.1587 92.1012 64.0663 92.0281 64.9042 92.3005C65.7421 92.5728 66.4418 93.1682 66.8493 93.9557C67.2568 94.7432 67.3388 95.6583 67.0772 96.4996C66.8155 97.341 66.2318 98.0397 65.4543 98.442L61.8007 100.333C62.125 100.164 62.4797 100.063 62.8446 100.033C63.2095 100.003 63.5773 100.046 63.9271 100.16C64.2768 100.273 64.6017 100.455 64.8831 100.694C65.1644 100.934 65.3968 101.226 65.5669 101.555C65.737 101.883 65.8414 102.242 65.8743 102.61C65.9071 102.978 65.8678 103.348 65.7584 103.699C65.649 104.05 65.4718 104.375 65.2369 104.656C65.002 104.937 64.714 105.167 64.3893 105.335L58.953 108.148C50.7716 107.731 42.8277 105.115 35.9477 100.57C29.0677 96.0258 23.5031 89.7197 19.8327 82.3081C16.1623 74.8965 14.5203 66.6501 15.0775 58.4269C15.6347 50.2037 18.3707 42.3041 23.0009 35.55V35.55Z" fill="#E6E6E6"/>
<path opacity="0.2" d="M52.2009 97.0049L52.6605 97.893L54.4368 96.9738L53.9772 96.0857L52.2009 97.0049Z" fill="black"/>
<path d="M36.2705 77.0995L36.7301 77.9877L40.2826 76.1493L39.823 75.2612L36.2705 77.0995Z" fill="#3F3D56"/>
<path d="M56.0577 84.8754L56.5173 85.7635L60.0699 83.9251L59.6103 83.037L56.0577 84.8754Z" fill="#3F3D56"/>
<path d="M38.4975 63.7425L38.4131 64.4033L41.9789 64.8638L42.0633 64.203L38.4975 63.7425Z" fill="#3F3D56"/>
<path d="M49.6754 97.6972L50.329 97.8246L51.0122 94.2931L50.3586 94.1656L49.6754 97.6972Z" fill="#3F3D56"/>
<path d="M56.3546 102.495L57.0082 102.623L57.6914 99.0914L57.0378 98.964L56.3546 102.495Z" fill="#3F3D56"/>
<path d="M34.4904 71.1357L34.4991 71.8019L38.0937 71.7591L38.085 71.0929L34.4904 71.1357Z" fill="white"/>
<path d="M47.7205 67.7415L47.7292 68.4077L51.3238 68.3649L51.3151 67.6987L47.7205 67.7415Z" fill="white"/>
<path d="M45.4436 79.2357L46.0891 79.3995L46.9687 75.912L46.3233 75.7482L45.4436 79.2357Z" fill="white"/>
<path d="M37.6779 98.113L38.3234 98.2768L39.203 94.7893L38.5575 94.6255L37.6779 98.113Z" fill="white"/>
<path d="M19.8522 76.1188L20.4977 76.2827L21.3773 72.7951L20.7318 72.6313L19.8522 76.1188Z" fill="white"/>
<path d="M38.5684 81.5402L39.028 82.4283L42.5805 80.5899L42.1209 79.7018L38.5684 81.5402Z" fill="#FF6584"/>
<path d="M30.5459 58.2992L31.1067 58.6589L33.0437 55.6303L32.4829 55.2706L30.5459 58.2992Z" fill="#FF6584"/>
<path d="M29.7478 85.4276L30.3086 85.7873L32.2456 82.7587L31.6848 82.399L29.7478 85.4276Z" fill="#FF6584"/>
<path d="M30.4156 94.538L30.9764 94.8977L32.9135 91.8691L32.3527 91.5094L30.4156 94.538Z" fill="#FF6584"/>
<path d="M47.7913 101.539L48.2509 102.427L51.8034 100.588L51.3438 99.7003L47.7913 101.539Z" fill="#FF6584"/>
</svg>
