<svg width="64" height="73" viewBox="0 0 64 73" fill="none" xmlns="http://www.w3.org/2000/svg">
<path d="M30.528 58.8013C42.1895 58.8013 51.643 49.3619 51.643 37.7178C51.643 26.0737 42.1895 16.6343 30.528 16.6343C18.8665 16.6343 9.41296 26.0737 9.41296 37.7178C9.41296 49.3619 18.8665 58.8013 30.528 58.8013Z" fill="#2F2E41"/>
<path d="M38.6833 64.7215L44.9954 63.5806L42.9481 52.2882L36.636 53.4292L38.6833 64.7215Z" fill="#2F2E41"/>
<path d="M26.059 67.0033L32.3711 65.8623L30.3238 54.57L24.0117 55.711L26.059 67.0033Z" fill="#2F2E41"/>
<path d="M29.4099 69.3797C31.6628 67.4746 32.9091 65.2464 32.1936 64.4028C31.4781 63.5592 29.0718 64.4198 26.8189 66.3249C24.566 68.23 23.3196 70.4583 24.0351 71.3019C24.7506 72.1454 27.157 71.2849 29.4099 69.3797Z" fill="#2F2E41"/>
<path d="M41.7711 67.1454C44.024 65.2402 45.2703 63.012 44.5548 62.1684C43.8393 61.3248 41.433 62.1854 39.1801 64.0905C36.9272 65.9956 35.6809 68.2239 36.3963 69.0675C37.1118 69.9111 39.5182 69.0505 41.7711 67.1454Z" fill="#2F2E41"/>
<path d="M29.0498 39.7665C33.0354 39.7665 36.2663 36.5404 36.2663 32.5607C36.2663 28.5811 33.0354 25.355 29.0498 25.355C25.0642 25.355 21.8333 28.5811 21.8333 32.5607C21.8333 36.5404 25.0642 39.7665 29.0498 39.7665Z" fill="white"/>
<path d="M26.0837 32.3795C27.4123 32.3795 28.4893 31.3042 28.4893 29.9776C28.4893 28.6511 27.4123 27.5757 26.0837 27.5757C24.7552 27.5757 23.6782 28.6511 23.6782 29.9776C23.6782 31.3042 24.7552 32.3795 26.0837 32.3795Z" fill="#3F3D56"/>
<path d="M47.1849 14.7811C47.5024 6.97568 40.7652 0.364422 32.1369 0.0144624C23.5086 -0.335497 16.2566 5.70836 15.939 13.5138C15.6215 21.3192 21.6193 23.0927 30.2476 23.4427C38.8759 23.7926 46.8673 22.5865 47.1849 14.7811Z" fill="#CFCCE0"/>
<path d="M21.3218 36.2319C21.7308 34.4503 17.455 31.9517 11.7716 30.6509C6.08827 29.3501 1.14946 29.7398 0.740495 31.5214C0.331531 33.3029 4.60728 35.8016 10.2906 37.1023C15.974 38.4031 20.9128 38.0134 21.3218 36.2319Z" fill="#2F2E41"/>
<path d="M62.7697 43.1145C63.1787 41.3329 58.903 38.8342 53.2196 37.5335C47.5362 36.2327 42.5974 36.6224 42.1885 38.4039C41.7795 40.1855 46.0553 42.6841 51.7386 43.9849C57.422 45.2857 62.3608 44.896 62.7697 43.1145Z" fill="#2F2E41"/>
<path d="M36.3273 46.0267C36.4402 46.6476 36.4295 47.2847 36.2958 47.9015C36.1621 48.5183 35.908 49.1028 35.548 49.6215C35.188 50.1402 34.7292 50.583 34.1977 50.9246C33.6663 51.2662 33.0726 51.4999 32.4507 51.6123C31.8288 51.7247 31.1908 51.7137 30.5731 51.5798C29.9555 51.4459 29.3703 51.1919 28.851 50.8321C28.3317 50.4723 27.8885 50.0139 27.5468 49.483C27.205 48.9521 26.9713 48.3592 26.8591 47.7382C26.3858 45.1275 28.4073 44.2037 31.0219 43.7311C33.6364 43.2585 35.8539 43.416 36.3273 46.0267Z" fill="white"/>
</svg>
